<?xml version="1.0" standalone="no"?><!DOCTYPE svg PUBLIC "-//W3C//DTD SVG 1.1//EN" "http://www.w3.org/Graphics/SVG/1.1/DTD/svg11.dtd"><svg t="1504158205345" class="icon" style="" viewBox="0 0 1024 1024" version="1.1" xmlns="http://www.w3.org/2000/svg" p-id="8394" xmlns:xlink="http://www.w3.org/1999/xlink" width="200" height="200"><defs><style type="text/css"></style></defs><path d="M485.440088 67.647703h53.763484c41.690518 7.988951 84.624353 18.907629 119.243825 44.679595 47.578622 32.251541 84.002183 83.292008 89.416495 141.582599 4.675486 55.449893 2.249227 111.225197 2.604315 166.792771 22.517853 3.01773 46.957475 0.444115 67.728544 11.391444 26.7789 11.422144 44.23548 38.347376 50.567699 66.043159v381.90299c-8.04728 37.222763-37.903262 67.995627-75.42176 75.274404H230.946906c-37.222763-8.018627-67.995627-37.903262-75.274404-75.42176V498.137271c6.302543-27.694759 23.788799-54.621015 50.567699-66.071811 20.741393-11.006681 45.210691-8.136308 67.728544-10.889002 2.632967-69.534679-8.433066-141.16816 11.273765-208.986755 30.890544-82.641185 114.923426-134.629233 200.197578-144.542z m4.142343 105.721856c-52.312436 7.338129-106.697067 45.299719-111.490234 101.370759-2.159176 49.295729 0.089028 98.649787-0.444114 147.945517 89.713254 0.089028 179.427532 0.058328 269.140786 0.029676-0.384763-46.336328 1.478677-92.732008-0.473791-139.03866-1.035586-14.676257-2.100848-30.239721-9.410323-43.34725-29.084409-49.622164-90.836845-77.435627-147.322324-66.960042z m-31.866778 397.615857c-39.85573 22.723537-59.295478 74.326822-44.471864 117.7938 5.710049 27.813462 31.334659 43.347251 50.331315 61.870116 9.232269 24.173562-2.90005 58.910715 21.36254 76.488045 19.913539 17.811668 55.775304 10.149151 66.427922-14.677281 7.396457-19.942191 6.183839-41.897226 8.610098-62.72867 20.682042-12.219299 37.992289-30.150694 48.141441-52.076052 14.380522-33.584909 8.758478-74.890664-14.617929-103.148242-31.127951-40.092114-93.027743-50.832735-135.783523-23.521716" p-id="8395"></path></svg>